# xmcd
#
# Track frame offsets:
# 150
# 12096
# 23527
# 35075
# 46920
# 59749
# 71777
# 82244
# 93743
# 104947
# 115227
# 127673
# 138798
# 150742
# 161553
# 175701
# 189966
# 203247
# 214552
# 223601
# 234921
# 244229
# 255334
# 265141
# 275006
# 283188
#
# Disc length: 3910 seconds
#
# Revision: 0
# Processed by: cddbd v1.4PL0 Copyright (c) Steve Scherf et al.
# Submitted via: Audion 3.0.2 (http://www.panic.com/audion/)
#
DISCID=7b0f441a
DTITLE=Cooley, Spade - Swingin' The Devil's Dream [CD2]
DYEAR=1900
DGENRE=
TTITLE0=It's Dark Outside
TTITLE1=Minuet In Swing
TTITLE2=All Aboard For Oklahoma
TTITLE3=Texas Steel Guitar
TTITLE4=You Can't Take The Texas Out Of Me
TTITLE5=Three Fiddle Rag
TTITLE6=Call Me Darlin' Do
TTITLE7=Tuesday Two Step
TTITLE8=Fickle Woman
TTITLE9=Lord Nottingham's War Dance
TTITLE10=Big Chief Boogie
TTITLE11=Whistle Bait
TTITLE12=Four Fiddle Polka
TTITLE13=Topeka Polka
TTITLE14=Wagon Wheels
TTITLE15=The Last Round Up
TTITLE16=Hillbilly Fever
TTITLE17=Chew Tobacco Rag
TTITLE18=Hitsitty Hotsitty
TTITLE19=The Cowboy Waltz
TTITLE20=Down Yonder
TTITLE21=Horse Hair Boogie
TTITLE22=Crazy Cause I Love You
TTITLE23=Swingin' The Devil's Dream
TTITLE24=Carmen's Boogie
TTITLE25=One Sweet Letter From You
EXTD=
EXTT0=
EXTT1=
EXTT2=
EXTT3=
EXTT4=
EXTT5=
EXTT6=
EXTT7=
EXTT8=
EXTT9=
EXTT10=
EXTT11=
EXTT12=
EXTT13=
EXTT14=
EXTT15=
EXTT16=
EXTT17=
EXTT18=
EXTT19=
EXTT20=
EXTT21=
EXTT22=
EXTT23=
EXTT24=
EXTT25=
PLAYORDER=
